<svg xmlns="http://www.w3.org/2000/svg" style="display: none;">

  <symbol id="angle-arrow-down" viewBox="0 0 64 39">
    <path fill="currentColor" d="M63.36 4.004L60.155.741c-.427-.436-.919-.654-1.475-.654-.555 0-1.047.218-1.475.654L32 26.4 6.798.74C6.37.306 5.878.088 5.323.088c-.556 0-1.048.218-1.476.654L.642 4.005C.213 4.44 0 4.941 0 5.507c0 .565.214 1.066.642 1.501l29.883 30.427c.427.435.92.652 1.475.652.556 0 1.047-.217 1.474-.652L63.361 7.008c.427-.435.639-.936.639-1.501 0-.566-.212-1.067-.64-1.503z" />
  </symbol>

  <symbol id="angle-arrow-right" viewBox="0 0 38 64">
    <path fill="currentColor" fill-rule="evenodd" d="M3.917.64L.653 3.845C.217 4.273 0 4.765 0 5.32s.217 1.047.653 1.475L26.313 32 .652 57.202c-.436.428-.653.92-.653 1.475 0 .556.217 1.048.653 1.476l3.265 3.205c.435.429.936.642 1.502.642.565 0 1.066-.214 1.5-.642l30.427-29.883c.436-.427.653-.92.653-1.475 0-.556-.217-1.047-.653-1.474L6.921.639C6.486.212 5.985 0 5.42 0c-.566 0-1.067.212-1.503.64z"/>
  </symbol>

  <symbol id="angle-arrow-up" viewBox="0 0 64 39">
    <path fill="currentColor" d="M.655 34.187c-.427-.437-.64-.937-.64-1.503 0-.566.213-1.067.64-1.502L30.542.756c.427-.436.918-.653 1.474-.653.555 0 1.048.218 1.474.653l29.884 30.426c.428.435.642.936.642 1.502s-.213 1.066-.642 1.501l-3.206 3.265c-.427.436-.919.653-1.475.653-.555 0-1.047-.217-1.475-.653L32.016 11.79 6.81 37.45c-.427.436-.919.653-1.474.653-.556 0-1.048-.217-1.475-.653L.655 34.187z"/>
  </symbol>

  <symbol id="arrow-left-solid" viewBox="0 0 256 512">
    <path fill="currentColor" d="M31.7 239l136-136c9.4-9.4 24.6-9.4 33.9 0l22.6 22.6c9.4 9.4 9.4 24.6 0 33.9L127.9 256l96.4 96.4c9.4 9.4 9.4 24.6 0 33.9L201.7 409c-9.4 9.4-24.6 9.4-33.9 0l-136-136c-9.5-9.4-9.5-24.6-.1-34z" />
  </symbol>

	<symbol id="close-alt" viewBox="0 0 15 15">
		<path fill="none" stroke="currentColor" stroke-linecap="round" stroke-width="2" d="M0 13.0332964L13.0332964 0M13.0332964 13.0332964L0 0" transform="translate(1 1)"/>
	</symbol>

  <symbol id="envelope" viewBox="0 0 512 512">
    <path fill="currentColor" d="M464 64H48C21.49 64 0 85.49 0 112v288c0 26.51 21.49 48 48 48h416c26.51 0 48-21.49 48-48V112c0-26.51-21.49-48-48-48zm0 48v40.805c-22.422 18.259-58.168 46.651-134.587 106.49-16.841 13.247-50.201 45.072-73.413 44.701-23.208.375-56.579-31.459-73.413-44.701C106.18 199.465 70.425 171.067 48 152.805V112h416zM48 400V214.398c22.914 18.251 55.409 43.862 104.938 82.646 21.857 17.205 60.134 55.186 103.062 54.955 42.717.231 80.509-37.199 103.053-54.947 49.528-38.783 82.032-64.401 104.947-82.653V400H48z" />
  </symbol>

  <symbol id="facebook" viewBox="0 0 216 146">
    <path fill="currentColor" d="M118.348 49.86V38.293c0-1.737.08-3.082.243-4.032.165-.95.53-1.886 1.104-2.81.57-.923 1.494-1.56 2.77-1.914 1.277-.354 2.975-.53 5.094-.53h11.568V5.866H120.63c-10.702 0-18.387 2.54-23.058 7.617-4.67 5.08-7.006 12.56-7.006 22.446v13.93H76.714V73h13.85v67.134h27.784V73h18.494l2.444-23.14h-20.938z"/>
  </symbol>

  <symbol id="linkedin" viewBox="0 0 448 512">
    <path fill="currentColor" d="M416 32H31.9C14.3 32 0 46.5 0 64.3v383.4C0 465.5 14.3 480 31.9 480H416c17.6 0 32-14.5 32-32.3V64.3c0-17.8-14.4-32.3-32-32.3zM135.4 416H69V202.2h66.5V416zm-33.2-243c-21.3 0-38.5-17.3-38.5-38.5S80.9 96 102.2 96c21.2 0 38.5 17.3 38.5 38.5 0 21.3-17.2 38.5-38.5 38.5zm282.1 243h-66.4V312c0-24.8-.5-56.7-34.5-56.7-34.6 0-39.9 27-39.9 54.9V416h-66.4V202.2h63.7v29.2h.9c8.9-16.8 30.6-34.5 62.9-34.5 67.2 0 79.7 44.3 79.7 101.9V416z" />
  </symbol>

  <symbol id="print" viewBox="0 0 512 512">
    <path fill="currentColor" d="M448 192V77.25c0-8.49-3.37-16.62-9.37-22.63L393.37 9.37c-6-6-14.14-9.37-22.63-9.37H96C78.33 0 64 14.33 64 32v160c-35.35 0-64 28.65-64 64v112c0 8.84 7.16 16 16 16h48v96c0 17.67 14.33 32 32 32h320c17.67 0 32-14.33 32-32v-96h48c8.84 0 16-7.16 16-16V256c0-35.35-28.65-64-64-64zm-64 256H128v-96h256v96zm0-224H128V64h192v48c0 8.84 7.16 16 16 16h48v96zm48 72c-13.25 0-24-10.75-24-24 0-13.26 10.75-24 24-24s24 10.74 24 24c0 13.25-10.75 24-24 24z" />
  </symbol>

  <symbol id="rss" viewBox="0 0 24 24">
    <circle fill="currentColor" cx="6.18" cy="17.82" r="2.18"/>
    <path fill="currentColor" d="M4 4.44v2.83c7.03 0 12.73 5.7 12.73 12.73h2.83c0-8.59-6.97-15.56-15.56-15.56zm0 5.66v2.83c3.9 0 7.07 3.17 7.07 7.07h2.83c0-5.47-4.43-9.9-9.9-9.9z" />
  </symbol>

  <symbol id="x" viewBox="0 0 216 146">
    <path fill="currentColor" d="M172.2 33.24c-5.05 2.174-10.103 3.53-15.152 4.076 5.703-3.422 9.56-8.256 11.57-14.502-5.216 3.095-10.783 5.213-16.703 6.354-5.215-5.54-11.623-8.31-19.228-8.31-7.278 0-13.483 2.565-18.617 7.698-5.133 5.133-7.7 11.338-7.7 18.616 0 1.955.218 3.965.653 6.03-10.755-.544-20.844-3.246-30.268-8.107-9.424-4.862-17.422-11.34-23.994-19.432-2.39 4.073-3.582 8.5-3.582 13.28 0 4.508 1.06 8.69 3.178 12.547 2.118 3.856 4.97 6.98 8.555 9.37-4.237-.164-8.202-1.278-11.895-3.342v.326c0 6.355 1.996 11.935 5.988 16.743 3.992 4.808 9.03 7.835 15.113 9.084-2.28.6-4.59.9-6.925.9-1.52 0-3.177-.137-4.97-.407 1.685 5.27 4.78 9.6 9.29 12.995 4.507 3.396 9.613 5.146 15.316 5.256-9.56 7.495-20.45 11.243-32.67 11.243-2.336 0-4.454-.107-6.355-.325 12.22 7.876 25.69 11.813 40.41 11.813 9.344 0 18.116-1.48 26.316-4.44 8.203-2.96 15.21-6.924 21.02-11.895 5.812-4.97 10.823-10.686 15.032-17.15 4.21-6.463 7.345-13.21 9.41-20.245 2.064-7.035 3.096-14.08 3.096-21.143 0-1.52-.027-2.66-.082-3.422 5.163-3.746 9.563-8.282 13.2-13.604z" />
  </symbol>

  <symbol id="volume-up" viewBox="0 0 576 512">
    <path fill="currentColor" d="M215.03 71.05L126.06 160H24c-13.26 0-24 10.74-24 24v144c0 13.25 10.74 24 24 24h102.06l88.97 88.95c15.03 15.03 40.97 4.47 40.97-16.97V88.02c0-21.46-25.96-31.98-40.97-16.97zm233.32-51.08c-11.17-7.33-26.18-4.24-33.51 6.95-7.34 11.17-4.22 26.18 6.95 33.51 66.27 43.49 105.82 116.6 105.82 195.58 0 78.98-39.55 152.09-105.82 195.58-11.17 7.32-14.29 22.34-6.95 33.5 7.04 10.71 21.93 14.56 33.51 6.95C528.27 439.58 576 351.33 576 256S528.27 72.43 448.35 19.97zM480 256c0-63.53-32.06-121.94-85.77-156.24-11.19-7.14-26.03-3.82-33.12 7.46s-3.78 26.21 7.41 33.36C408.27 165.97 432 209.11 432 256s-23.73 90.03-63.48 115.42c-11.19 7.14-14.5 22.07-7.41 33.36 6.51 10.36 21.12 15.14 33.12 7.46C447.94 377.94 480 319.54 480 256zm-141.77-76.87c-11.58-6.33-26.19-2.16-32.61 9.45-6.39 11.61-2.16 26.2 9.45 32.61C327.98 228.28 336 241.63 336 256c0 14.38-8.02 27.72-20.92 34.81-11.61 6.41-15.84 21-9.45 32.61 6.43 11.66 21.05 15.8 32.61 9.45 28.23-15.55 45.77-45 45.77-76.88s-17.54-61.32-45.78-76.86z" />
  </symbol>

  <symbol id="youtube" viewBox="0 -3 21 31">
    <path fill="currentColor" fill-rule="evenodd" clip-rule="evenodd" d="M21,17.8c0,2.2-0.1,3.8-0.4,4.9
			c-0.2,0.5-0.4,1-0.8,1.4c-0.4,0.3-0.9,0.6-1.4,0.6c-1.8,0.2-4.4,0.3-7.9,0.3s-6.2-0.1-7.9-0.3c-0.5-0.1-1.1-0.3-1.5-0.6
			c-0.4-0.3-0.7-0.9-0.8-1.4c-0.3-1-0.4-2.7-0.4-4.9c0-2.2,0.1-3.8,0.4-4.9c0.2-0.5,0.4-1,0.8-1.4c0.4-0.3,0.9-0.6,1.5-0.7
			c1.8-0.2,4.4-0.3,7.9-0.3s6.2,0.1,7.9,0.3c0.5,0.1,1.1,0.3,1.5,0.7c0.4,0.3,0.7,0.9,0.8,1.4C20.8,14,21,15.7,21,17.8L21,17.8z
			 M4.4,14.4h1.5v-1.3H1.5v1.3H3v8h1.4V14.4L4.4,14.4z M6.9,0h1.5L6.6,5.5v3.8H5.2V5.5C5.1,4.8,4.7,3.9,4.3,2.6C4,1.6,3.7,0.8,3.3,0
			h1.5l1,3.6L6.9,0L6.9,0z M8.5,22.3h1.2v-6.9H8.5v5.3c-0.3,0.4-0.5,0.6-0.8,0.6c-0.2,0-0.3-0.1-0.3-0.3v-0.5v-5.1H6.2v5.4
			c0,0.4,0,0.8,0.1,1c0.1,0.3,0.4,0.5,0.8,0.5c0.4,0,1-0.3,1.4-0.9V22.3L8.5,22.3z M12,4.7v2.4c0,0.8-0.2,1.3-0.4,1.6
			c-0.4,0.4-0.9,0.7-1.5,0.7S9,9.2,8.6,8.7C8.3,8.4,8.2,7.9,8.2,7.1V4.7c0-0.8,0.2-1.3,0.4-1.6C9,2.5,9.5,2.3,10.1,2.3
			s1.1,0.3,1.5,0.7C11.9,3.4,12,3.9,12,4.7L12,4.7z M10.8,7.4V4.4c0-0.6-0.2-1-0.6-1s-0.6,0.3-0.6,1v2.9c0,0.7,0.2,1,0.6,1
			C10.5,8.3,10.8,8,10.8,7.4L10.8,7.4z M14.6,20.2v-2.8c0-0.7,0-1.1-0.1-1.4c-0.2-0.5-0.5-0.8-1-0.8c-0.4,0-0.9,0.3-1.3,0.8v-3H11
			v9.3h1.2v-0.7c0.4,0.5,0.9,0.8,1.3,0.8c0.5,0,0.9-0.3,1-0.8C14.6,21.4,14.6,20.9,14.6,20.2L14.6,20.2z M13.4,17.4v2.9
			c0,0.6-0.2,1-0.5,1c-0.2,0-0.4-0.1-0.6-0.3v-4.2c0.2-0.2,0.4-0.3,0.6-0.3C13.2,16.4,13.4,16.8,13.4,17.4L13.4,17.4z M16.8,2.4v7
			h-1.3V8.7c-0.5,0.6-1,0.9-1.5,0.9c-0.4,0-0.7-0.2-0.9-0.5C13,8.7,13,8.4,13,8V2.4h1.3v5.1V8c0,0.2,0.1,0.3,0.3,0.3
			c0.3,0,0.5-0.2,0.8-0.6V2.4H16.8L16.8,2.4z M19.4,20.2V20h-1.3v0.9c-0.1,0.3-0.3,0.5-0.5,0.5c-0.4,0-0.6-0.3-0.6-1v-1.2h2.5v-1.5
			c0-0.7-0.1-1.3-0.4-1.6c-0.4-0.5-0.9-0.7-1.5-0.7s-1.1,0.3-1.5,0.7c-0.3,0.3-0.4,0.9-0.4,1.6v2.4c0,0.8,0.2,1.3,0.4,1.6
			c0.4,0.4,0.9,0.7,1.5,0.7c0.7,0,1.2-0.3,1.5-0.8c0.2-0.3,0.3-0.5,0.3-0.8V20.2L19.4,20.2z M18.2,17.4V18h-1.3v-0.6
			c0-0.6,0.2-1,0.6-1S18.2,16.8,18.2,17.4L18.2,17.4z"/>
  </symbol>
	<symbol id="image" viewBox="0 0 24 24">
		<path fill="currentColor" d="M21 19V5c0-1.1-.9-2-2-2H5c-1.1 0-2 .9-2 2v14c0 1.1.9 2 2 2h14c1.1 0 2-.9 2-2zM8.5 13.5l2.5 3.01L14.5 12l4.5 6H5l3.5-4.5z" />
	</symbol>
	<symbol id="accessibility_new" viewBox="0 0 24 24">
		<path fill="currentColor" d="M20.5 6c-2.61.7-5.67 1-8.5 1s-5.89-.3-8.5-1L3 8c1.86.5 4 .83 6 1v13h2v-6h2v6h2V9c2-.17 4.14-.5 6-1l-.5-2zM12 6c1.1 0 2-.9 2-2s-.9-2-2-2-2 .9-2 2 .9 2 2 2z" />
	</symbol>
	<symbol id="chat" viewBox="0 0 24 24">
		<path fill="currentColor" d="M20 2H4c-1.1 0-1.99.9-1.99 2L2 22l4-4h14c1.1 0 2-.9 2-2V4c0-1.1-.9-2-2-2zM6 9h12v2H6V9zm8 5H6v-2h8v2zm4-6H6V6h12v2z" />
	</symbol>
	<symbol id="code" viewBox="0 0 24 24">
		<path fill="currentColor" d="M9.4 16.6 4.8 12l4.6-4.6L8 6l-6 6 6 6 1.4-1.4zm5.2 0 4.6-4.6-4.6-4.6L16 6l6 6-6 6-1.4-1.4z" />
	</symbol>
	<symbol id="people" viewBox="0 0 24 24">
		<path fill="currentColor" d="M16 11c1.66 0 2.99-1.34 2.99-3S17.66 5 16 5c-1.66 0-3 1.34-3 3s1.34 3 3 3zm-8 0c1.66 0 2.99-1.34 2.99-3S9.66 5 8 5C6.34 5 5 6.34 5 8s1.34 3 3 3zm0 2c-2.33 0-7 1.17-7 3.5V19h14v-2.5c0-2.33-4.67-3.5-7-3.5zm8 0c-.29 0-.62.02-.97.05 1.16.84 1.97 1.97 1.97 3.45V19h6v-2.5c0-2.33-4.67-3.5-7-3.5z" />
	</symbol>
</svg>
