<svg xmlns="http://www.w3.org/2000/svg" style="display: none;">
  
  <symbol id="angle-arrow-down" viewBox="0 0 64 39">
    <path fill="currentColor" d="M63.36 4.004L60.155.741c-.427-.436-.919-.654-1.475-.654-.555 0-1.047.218-1.475.654L32 26.4 6.798.74C6.37.306 5.878.088 5.323.088c-.556 0-1.048.218-1.476.654L.642 4.005C.213 4.44 0 4.941 0 5.507c0 .565.214 1.066.642 1.501l29.883 30.427c.427.435.92.652 1.475.652.556 0 1.047-.217 1.474-.652L63.361 7.008c.427-.435.639-.936.639-1.501 0-.566-.212-1.067-.64-1.503z" />
  </symbol>

  <symbol id="angle-arrow-left" viewBox="0 0 256 512">
    <path fill="currentColor" d="M31.7 239l136-136c9.4-9.4 24.6-9.4 33.9 0l22.6 22.6c9.4 9.4 9.4 24.6 0 33.9L127.9 256l96.4 96.4c9.4 9.4 9.4 24.6 0 33.9L201.7 409c-9.4 9.4-24.6 9.4-33.9 0l-136-136c-9.5-9.4-9.5-24.6-.1-34z" />
  </symbol>

  <symbol id="angle-arrow-right" viewBox="0 0 38 64">
    <path  fill="currentColor" fill-rule="evenodd" d="M3.917.64L.653 3.845C.217 4.273 0 4.765 0 5.32s.217 1.047.653 1.475L26.313 32 .652 57.202c-.436.428-.653.92-.653 1.475 0 .556.217 1.048.653 1.476l3.265 3.205c.435.429.936.642 1.502.642.565 0 1.066-.214 1.5-.642l30.427-29.883c.436-.427.653-.92.653-1.475 0-.556-.217-1.047-.653-1.474L6.921.639C6.486.212 5.985 0 5.42 0c-.566 0-1.067.212-1.503.64z"/>
  </symbol>

  <symbol id="angle-arrow-up" viewBox="0 0 64 39">
    <path fill="currentColor" d="M.655 34.187c-.427-.437-.64-.937-.64-1.503 0-.566.213-1.067.64-1.502L30.542.756c.427-.436.918-.653 1.474-.653.555 0 1.048.218 1.474.653l29.884 30.426c.428.435.642.936.642 1.502s-.213 1.066-.642 1.501l-3.206 3.265c-.427.436-.919.653-1.475.653-.555 0-1.047-.217-1.475-.653L32.016 11.79 6.81 37.45c-.427.436-.919.653-1.474.653-.556 0-1.048-.217-1.475-.653L.655 34.187z"/>
  </symbol>

  <symbol id="envelope" viewBox="0 0 512 512">
    <path fill="currentColor" d="M464 64H48C21.49 64 0 85.49 0 112v288c0 26.51 21.49 48 48 48h416c26.51 0 48-21.49 48-48V112c0-26.51-21.49-48-48-48zm0 48v40.805c-22.422 18.259-58.168 46.651-134.587 106.49-16.841 13.247-50.201 45.072-73.413 44.701-23.208.375-56.579-31.459-73.413-44.701C106.18 199.465 70.425 171.067 48 152.805V112h416zM48 400V214.398c22.914 18.251 55.409 43.862 104.938 82.646 21.857 17.205 60.134 55.186 103.062 54.955 42.717.231 80.509-37.199 103.053-54.947 49.528-38.783 82.032-64.401 104.947-82.653V400H48z" />
  </symbol>

  <symbol id="instagram" viewBox="0 0 44 44">
    <path fill="currentColor" d="M22.059 10.78a11.242 11.242 0 00-11.26 11.26 11.242 11.242 0 0011.26 11.259c6.232 0 11.26-5.027 11.26-11.26 0-6.232-5.028-11.26-11.26-11.26zm0 18.58c-4.028 0-7.32-3.283-7.32-7.32a7.327 7.327 0 017.32-7.321 7.327 7.327 0 017.32 7.32c0 4.038-3.293 7.32-7.32 7.32zm14.346-19.041a2.62 2.62 0 01-2.626 2.626 2.626 2.626 0 112.626-2.626zm7.458 2.665c-.167-3.518-.97-6.634-3.548-9.201C37.748 1.215 34.632.412 31.114.235 27.488.03 16.62.03 12.994.235c-3.508.167-6.624.97-9.202 3.538C1.215 6.34.422 9.457.245 12.975.039 16.6.039 27.468.245 31.094c.167 3.518.97 6.634 3.547 9.202 2.578 2.567 5.684 3.37 9.202 3.547 3.626.206 14.494.206 18.12 0 3.518-.166 6.634-.97 9.201-3.547 2.568-2.568 3.371-5.684 3.548-9.202.206-3.626.206-14.484 0-18.11zm-4.684 22a7.411 7.411 0 01-4.175 4.175c-2.89 1.147-9.75.882-12.945.882-3.195 0-10.064.255-12.945-.882a7.411 7.411 0 01-4.175-4.175c-1.147-2.89-.882-9.75-.882-12.945 0-3.194-.255-10.064.882-12.945a7.411 7.411 0 014.175-4.175c2.89-1.146 9.75-.882 12.945-.882 3.194 0 10.064-.254 12.945.882a7.411 7.411 0 014.175 4.175c1.146 2.89.882 9.75.882 12.945 0 3.195.264 10.064-.882 12.945z"/> 
  </symbol>

  <symbol id="facebook" viewBox="0 0 216 146">
    <<path fill="currentColor" d="M118.348 49.86V38.293c0-1.737.08-3.082.243-4.032.165-.95.53-1.886 1.104-2.81.57-.923 1.494-1.56 2.77-1.914 1.277-.354 2.975-.53 5.094-.53h11.568V5.866H120.63c-10.702 0-18.387 2.54-23.058 7.617-4.67 5.08-7.006 12.56-7.006 22.446v13.93H76.714V73h13.85v67.134h27.784V73h18.494l2.444-23.14h-20.938z"/>
  </symbol>

  <symbol id="print" viewBox="0 0 512 512">
    <path fill="currentColor" d="M448 192V77.25c0-8.49-3.37-16.62-9.37-22.63L393.37 9.37c-6-6-14.14-9.37-22.63-9.37H96C78.33 0 64 14.33 64 32v160c-35.35 0-64 28.65-64 64v112c0 8.84 7.16 16 16 16h48v96c0 17.67 14.33 32 32 32h320c17.67 0 32-14.33 32-32v-96h48c8.84 0 16-7.16 16-16V256c0-35.35-28.65-64-64-64zm-64 256H128v-96h256v96zm0-224H128V64h192v48c0 8.84 7.16 16 16 16h48v96zm48 72c-13.25 0-24-10.75-24-24 0-13.26 10.75-24 24-24s24 10.74 24 24c0 13.25-10.75 24-24 24z" />
  </symbol>

  <symbol id="rss" viewBox="0 0 24 24">
    <path fill="currentColor" d="M66.28 99.072c-4.347 0-8.04 1.52-11.082 4.562-3.04 3.042-4.562 6.735-4.562 11.08 0 4.347 1.52 8.04 4.562 11.08 3.042 3.042 6.736 4.563 11.08 4.563 4.346 0 8.04-1.52 11.08-4.562 3.042-3.042 4.563-6.734 4.563-11.08s-1.52-8.04-4.56-11.08c-3.04-3.042-6.733-4.563-11.08-4.563zm36.01-20.37c-6.138-6.19-13.172-11.12-21.102-14.786-7.93-3.667-16.24-5.853-24.93-6.56h-.408c-1.412 0-2.58.463-3.503 1.386-1.14.977-1.71 2.254-1.71 3.83V73.57c0 1.357.447 2.525 1.343 3.503.896.98 2.023 1.522 3.38 1.63 12.44 1.195 23.07 6.206 31.897 15.032 8.826 8.825 13.837 19.458 15.032 31.896.106 1.36.65 2.488 1.63 3.384.975.897 2.142 1.346 3.5 1.346h11c1.574 0 2.85-.57 3.83-1.71 1.03-1.09 1.492-2.393 1.385-3.914-.707-8.69-2.894-17-6.56-24.93-3.666-7.93-8.595-14.964-14.787-21.102z" />
    <path fill="currentColor" d="M155.573 84.04c-5.812-13.01-13.796-24.565-23.953-34.668-10.103-10.157-21.658-18.14-34.667-23.953-13.008-5.814-26.628-9.074-40.86-9.78h-.243c-1.412 0-2.607.49-3.585 1.467-1.086.976-1.63 2.226-1.63 3.747v11.65c0 1.358.477 2.54 1.427 3.544s2.104 1.534 3.462 1.59c11.678.706 22.772 3.477 33.282 8.31 10.51 4.835 19.635 11.12 27.375 18.86 7.74 7.74 14.03 16.866 18.86 27.376 4.837 10.512 7.58 21.604 8.23 33.282.057 1.357.586 2.512 1.59 3.462 1.006.95 2.215 1.427 3.627 1.427h11.65c1.52 0 2.768-.544 3.747-1.632 1.087-1.086 1.574-2.36 1.468-3.828-.704-14.232-3.964-27.852-9.776-40.86z" />
  </symbol>

  <symbol id="twitter" viewBox="0 0 216 146">
    <path fill="currentColor" d="M172.2 33.24c-5.05 2.174-10.103 3.53-15.152 4.076 5.703-3.422 9.56-8.256 11.57-14.502-5.216 3.095-10.783 5.213-16.703 6.354-5.215-5.54-11.623-8.31-19.228-8.31-7.278 0-13.483 2.565-18.617 7.698-5.133 5.133-7.7 11.338-7.7 18.616 0 1.955.218 3.965.653 6.03-10.755-.544-20.844-3.246-30.268-8.107-9.424-4.862-17.422-11.34-23.994-19.432-2.39 4.073-3.582 8.5-3.582 13.28 0 4.508 1.06 8.69 3.178 12.547 2.118 3.856 4.97 6.98 8.555 9.37-4.237-.164-8.202-1.278-11.895-3.342v.326c0 6.355 1.996 11.935 5.988 16.743 3.992 4.808 9.03 7.835 15.113 9.084-2.28.6-4.59.9-6.925.9-1.52 0-3.177-.137-4.97-.407 1.685 5.27 4.78 9.6 9.29 12.995 4.507 3.396 9.613 5.146 15.316 5.256-9.56 7.495-20.45 11.243-32.67 11.243-2.336 0-4.454-.107-6.355-.325 12.22 7.876 25.69 11.813 40.41 11.813 9.344 0 18.116-1.48 26.316-4.44 8.203-2.96 15.21-6.924 21.02-11.895 5.812-4.97 10.823-10.686 15.032-17.15 4.21-6.463 7.345-13.21 9.41-20.245 2.064-7.035 3.096-14.08 3.096-21.143 0-1.52-.027-2.66-.082-3.422 5.163-3.746 9.563-8.282 13.2-13.604z" />
  </symbol>

  <symbol id="volume-up" viewBox="0 0 576 512">
    <path fill="currentColor" d="M215.03 71.05L126.06 160H24c-13.26 0-24 10.74-24 24v144c0 13.25 10.74 24 24 24h102.06l88.97 88.95c15.03 15.03 40.97 4.47 40.97-16.97V88.02c0-21.46-25.96-31.98-40.97-16.97zm233.32-51.08c-11.17-7.33-26.18-4.24-33.51 6.95-7.34 11.17-4.22 26.18 6.95 33.51 66.27 43.49 105.82 116.6 105.82 195.58 0 78.98-39.55 152.09-105.82 195.58-11.17 7.32-14.29 22.34-6.95 33.5 7.04 10.71 21.93 14.56 33.51 6.95C528.27 439.58 576 351.33 576 256S528.27 72.43 448.35 19.97zM480 256c0-63.53-32.06-121.94-85.77-156.24-11.19-7.14-26.03-3.82-33.12 7.46s-3.78 26.21 7.41 33.36C408.27 165.97 432 209.11 432 256s-23.73 90.03-63.48 115.42c-11.19 7.14-14.5 22.07-7.41 33.36 6.51 10.36 21.12 15.14 33.12 7.46C447.94 377.94 480 319.54 480 256zm-141.77-76.87c-11.58-6.33-26.19-2.16-32.61 9.45-6.39 11.61-2.16 26.2 9.45 32.61C327.98 228.28 336 241.63 336 256c0 14.38-8.02 27.72-20.92 34.81-11.61 6.41-15.84 21-9.45 32.61 6.43 11.66 21.05 15.8 32.61 9.45 28.23-15.55 45.77-45 45.77-76.88s-17.54-61.32-45.78-76.86z" />
  </symbol>

  <symbol id="youtube">
    <path fill="currentColor" d="M12,2A10,10,0,1,0,22,12,10,10,0,0,0,12,2Zm5.75,12.91A1.49,1.49,0,0,1,16.69,16a34.65,34.65,0,0,1-4.69.26A34.65,34.65,0,0,1,7.31,16a1.49,1.49,0,0,1-1.06-1.06A15.88,15.88,0,0,1,6,12a15.88,15.88,0,0,1,.25-2.91A1.49,1.49,0,0,1,7.31,8,34.65,34.65,0,0,1,12,7.77,34.65,34.65,0,0,1,16.69,8a1.49,1.49,0,0,1,1.06,1.06A15.88,15.88,0,0,1,18,12,15.88,15.88,0,0,1,17.75,14.91Z"/>
    <polygon fill="currentColor" points="10.77 13.78 13.91 12 10.77 10.22 10.77 13.78"/>
  </symbol>

</svg>
