<svg xmlns="http://www.w3.org/2000/svg" xml:space="preserve" baseProfile="tiny" overflow="visible" viewBox="0 0 597 50"><path fill="#BA1F40" d="M57.7 6c-.9-1.3-2.4-2.2-3.9-2.2h-3.6l12 21.2-12 21.2h3.6c1.7 0 3.2-.9 3.9-2.2l10.5-18.9L57.7 6z"/><path fill="#606061" d="M58.9 24.9 47.2 3.8H4.7C2 3.8.1 5.9.1 8.4v33.3c0 2.5 2 4.6 4.6 4.6h42.5l11.7-21.4z"/><path fill="#FFF" d="M25.2 15.6h3.2v18.8h-3.2zM18.9 15.6v13.7l-8.7-13.7h-3v18.8h3V20.6l8.7 13.8H22V15.6zM43.2 15.6v7.8h-8.7v-7.8h-3.1v18.8h3.1v-7.9h8.7v7.9h3.2V15.6z"/><g fill="#606061"><path d="M79 39.7V28.1h5.2c1.3 0 2.4.2 3.3.7s1.7 1.1 2.2 2c.5.9.8 1.9.8 3.1 0 1.2-.3 2.2-.8 3s-1.3 1.5-2.2 2-2.1.7-3.3.7H79zm2.6-2.2H84c.8 0 1.4-.1 2-.4.6-.3 1-.7 1.3-1.2s.5-1.2.5-1.9-.2-1.4-.5-1.9-.8-.9-1.3-1.2c-.6-.3-1.2-.4-2-.4h-2.4v7zM96.8 39.8c-1 0-1.9-.2-2.7-.6-.8-.4-1.4-.9-1.8-1.6s-.6-1.5-.6-2.4c0-.9.2-1.7.6-2.4s1-1.2 1.7-1.6 1.5-.6 2.4-.6c.9 0 1.7.2 2.4.6.7.4 1.3.9 1.7 1.6s.6 1.5.6 2.5v.7h-7.2v-1.5h5.9l-1 .4c0-.5-.1-.9-.3-1.2-.2-.3-.4-.6-.8-.8-.3-.2-.7-.3-1.2-.3-.4 0-.8.1-1.2.3-.3.2-.6.5-.8.8-.2.3-.3.8-.3 1.2v.4c0 .5.1.9.3 1.3.2.4.5.6.9.8s.8.3 1.4.3c.5 0 .9-.1 1.2-.2s.7-.4 1-.6l1.4 1.5c-.4.5-.9.8-1.5 1.1-.6.2-1.3.3-2.1.3zM105.8 39.8c-.8 0-1.5-.1-2.2-.3-.7-.2-1.3-.4-1.7-.7l.9-1.8c.4.3.9.5 1.4.6s1.1.2 1.6.2c.6 0 1-.1 1.3-.2.2-.1.4-.3.4-.6 0-.2-.1-.4-.3-.5s-.4-.2-.8-.2c-.3-.1-.7-.1-1-.2-.4-.1-.8-.1-1.1-.2-.4-.1-.7-.2-1.1-.4-.3-.2-.6-.4-.8-.8-.2-.3-.3-.7-.3-1.2 0-.6.2-1.1.5-1.5.3-.4.8-.8 1.4-1 .6-.2 1.4-.4 2.2-.4.6 0 1.2.1 1.8.2s1.1.3 1.6.6l-.9 1.8c-.4-.3-.9-.4-1.3-.5-.4-.1-.9-.1-1.3-.1-.6 0-1 .1-1.3.2-.3.2-.4.4-.4.6 0 .2.1.4.3.5.2.1.4.2.8.3.3.1.7.1 1 .2.4 0 .8.1 1.1.2.4.1.7.2 1 .4s.6.4.8.7c.2.3.3.7.3 1.2 0 .6-.2 1-.5 1.5-.3.4-.8.8-1.4 1-.3.3-1.1.4-2 .4zM112.9 29.5c-.5 0-.9-.1-1.2-.4-.3-.3-.4-.6-.4-1s.1-.7.4-1c.3-.3.7-.4 1.2-.4s.9.1 1.2.4c.3.3.4.6.4 1s-.1.8-.4 1.1c-.3.2-.7.3-1.2.3zm-1.3 10.2v-8.9h2.6v8.9h-2.6zM120.3 39.2c-.8 0-1.6-.2-2.2-.5-.7-.4-1.2-.9-1.6-1.5-.4-.6-.6-1.4-.6-2.3 0-.9.2-1.6.6-2.3.4-.6.9-1.1 1.6-1.5.7-.4 1.4-.5 2.2-.5.7 0 1.4.2 2 .5.6.3 1 .8 1.3 1.4.3.6.5 1.4.5 2.4s-.2 1.8-.5 2.4c-.3.6-.8 1.1-1.3 1.4-.6.4-1.2.5-2 .5zm.4 3.8c-.8 0-1.6-.1-2.4-.3-.8-.2-1.4-.5-1.9-.9l1-1.8c.4.3.9.6 1.4.7.6.2 1.1.3 1.7.3.9 0 1.6-.2 2-.6.4-.4.6-1 .6-1.8v-1.3l.2-2.2V31h2.4v7.4c0 1.6-.4 2.9-1.3 3.6-.8.6-2.1 1-3.7 1zm.1-5.9c.5 0 .9-.1 1.2-.3.4-.2.6-.4.8-.8s.3-.7.3-1.1c0-.4-.1-.8-.3-1.1s-.5-.6-.8-.8c-.4-.2-.8-.3-1.2-.3-.5 0-.9.1-1.2.3-.4.2-.6.4-.8.8s-.3.7-.3 1.1c0 .4.1.8.3 1.1s.5.6.8.8c.4.2.8.3 1.2.3zM133.5 30.6c.7 0 1.3.1 1.9.4s1 .7 1.3 1.3c.3.6.5 1.3.5 2.2v5.1h-2.6V35c0-.7-.2-1.2-.5-1.6s-.8-.5-1.3-.5c-.4 0-.8.1-1.1.3-.3.2-.6.4-.8.8-.2.4-.3.8-.3 1.4v4.4H128v-8.9h2.5v2.5l-.5-.7c.3-.6.8-1 1.4-1.4.7-.5 1.3-.7 2.1-.7zM148.2 39.9c-.9 0-1.8-.1-2.7-.4-.8-.2-1.5-.6-2-1l.9-2c.5.4 1.1.6 1.8.9.7.2 1.4.3 2.1.3.5 0 1-.1 1.3-.2.3-.1.6-.2.7-.4.2-.2.2-.4.2-.6 0-.3-.1-.6-.4-.7-.2-.2-.6-.3-1-.4-.4-.1-.8-.2-1.3-.3-.5-.1-1-.2-1.4-.4-.5-.2-.9-.4-1.3-.6-.4-.2-.7-.6-1-1-.2-.4-.4-.9-.4-1.5 0-.7.2-1.3.5-1.8.4-.5.9-1 1.6-1.3s1.6-.5 2.7-.5c.7 0 1.4.1 2.1.3.7.2 1.3.4 1.9.8l-.8 2c-.5-.3-1.1-.5-1.6-.7s-1.1-.2-1.6-.2-.9.1-1.3.2-.6.3-.7.5c-.1.2-.2.4-.2.7 0 .3.1.5.4.7.2.2.6.3 1 .4.4.1.8.2 1.3.3.5.1 1 .2 1.4.4.5.1.9.3 1.3.6.4.2.7.6 1 1 .2.4.4.9.4 1.5s-.2 1.2-.5 1.8c-.4.5-.9 1-1.6 1.3-.8.1-1.7.3-2.8.3zM155.7 43c-.5 0-.9-.1-1.4-.2-.5-.1-.8-.3-1.1-.6l.9-1.8c.2.2.4.3.7.4.3.1.5.1.8.1.4 0 .7-.1.9-.3.2-.2.4-.5.6-.8l.5-1.1.2-.3 3.2-7.7h2.5l-4 9.4c-.3.7-.6 1.3-1 1.7s-.8.7-1.2.9-1.1.3-1.6.3zm1.5-3-4-9.2h2.7l3.1 7.4-1.8 1.8zM167.3 39.8c-.8 0-1.5-.1-2.2-.3-.7-.2-1.3-.4-1.7-.7l.9-1.8c.4.3.9.5 1.4.6.6.2 1.1.2 1.6.2.6 0 1-.1 1.3-.2.2-.1.4-.3.4-.6 0-.2-.1-.4-.3-.5s-.4-.2-.8-.2c-.3-.1-.7-.1-1-.2-.4-.1-.8-.1-1.1-.2-.4-.1-.7-.2-1.1-.4-.3-.2-.6-.4-.8-.8-.2-.3-.3-.7-.3-1.2 0-.6.2-1.1.5-1.5.3-.4.8-.8 1.4-1 .6-.2 1.4-.4 2.2-.4.6 0 1.2.1 1.8.2s1.1.3 1.6.6l-.9 1.8c-.4-.3-.9-.4-1.3-.5-.4-.1-.9-.1-1.3-.1-.6 0-1 .1-1.3.2-.3.2-.4.4-.4.6 0 .2.1.4.3.5.2.1.4.2.8.3.3.1.7.1 1 .2s.8.1 1.1.2c.4.1.7.2 1 .4s.6.4.8.7.3.7.3 1.2c0 .6-.2 1-.5 1.5-.3.4-.8.8-1.4 1-.4.3-1.1.4-2 .4zM172 33v-2h6.2v2H172zm4.7 6.8c-1 0-1.9-.3-2.4-.8s-.9-1.3-.9-2.4v-7.8h2.6v7.8c0 .4.1.7.3.9.2.2.5.3.8.3.4 0 .8-.1 1-.3l.7 1.8c-.3.2-.6.3-.9.4-.5 0-.8.1-1.2.1zM184.3 39.8c-1 0-1.9-.2-2.7-.6-.8-.4-1.4-.9-1.8-1.6s-.6-1.5-.6-2.4c0-.9.2-1.7.6-2.4s1-1.2 1.7-1.6 1.5-.6 2.4-.6c.9 0 1.7.2 2.4.6.7.4 1.3.9 1.7 1.6s.6 1.5.6 2.5v.7h-7.2v-1.5h5.9l-1 .4c0-.5-.1-.9-.3-1.2-.2-.3-.4-.6-.8-.8-.3-.2-.7-.3-1.2-.3-.4 0-.8.1-1.2.3-.3.2-.6.5-.8.8-.2.3-.3.8-.3 1.2v.4c0 .5.1.9.3 1.3.2.4.5.6.9.8s.8.3 1.4.3c.5 0 .9-.1 1.2-.2s.7-.4 1-.6l1.4 1.5c-.4.5-.9.8-1.5 1.1-.5.2-1.3.3-2.1.3zM201.7 30.6c.7 0 1.3.1 1.9.4.5.3 1 .7 1.3 1.3.3.6.5 1.3.5 2.2v5.1h-2.6V35c0-.7-.1-1.2-.4-1.6s-.7-.5-1.3-.5c-.4 0-.7.1-1 .3-.3.2-.5.4-.7.8s-.2.8-.2 1.3v4.5h-2.6V35c0-.7-.1-1.2-.4-1.6-.3-.3-.7-.5-1.2-.5-.4 0-.7.1-1 .3-.3.2-.5.4-.7.8s-.2.8-.2 1.3v4.5h-2.6v-8.9h2.5v2.4l-.5-.7c.3-.6.7-1.1 1.3-1.4s1.2-.5 1.9-.5c.8 0 1.5.2 2.1.6.6.4 1 1 1.2 1.9l-.9-.2c.3-.7.8-1.2 1.4-1.7.6-.5 1.4-.7 2.2-.7z"/></g><g fill="#BB0E3D"><path d="M84.9 10.2h1.9v8.7h-1.9l-4.1-5.4v5.4h-1.9v-8.7h1.8l4.3 5.6v-5.6zM95.2 18.9l-.8-1.9h-3.6l-.8 1.9h-2.1l3.8-8.7h1.9l3.8 8.7h-2.2zm-2.6-6.1-1.1 2.5h2.2l-1.1-2.5zM101.3 11.8v7h-1.9v-7h-2.5v-1.7h6.9v1.7h-2.5zM105.2 10.2h1.9v8.7h-1.9v-8.7zM116.6 17.7c-.9.9-2 1.3-3.2 1.3s-2.4-.4-3.2-1.3c-.9-.9-1.3-1.9-1.3-3.2s.4-2.3 1.3-3.2c.9-.9 2-1.3 3.2-1.3s2.4.4 3.2 1.3c.9.9 1.3 1.9 1.3 3.2s-.5 2.3-1.3 3.2zm-.7-3.2c0-.8-.2-1.4-.7-2-.5-.5-1.1-.8-1.8-.8s-1.3.3-1.8.8-.7 1.2-.7 2 .2 1.4.7 2c.5.5 1.1.8 1.8.8s1.3-.3 1.8-.8c.5-.6.7-1.3.7-2zM125.6 10.2h1.9v8.7h-1.9l-4.1-5.4v5.4h-1.9v-8.7h1.8l4.3 5.6v-5.6zM135.9 18.9l-.8-1.9h-3.6l-.8 1.9h-2.1l3.8-8.7h1.9l3.8 8.7h-2.2zm-2.6-6.1-1.1 2.5h2.2l-1.1-2.5zM138.9 18.9v-8.7h1.9v7h3.7v1.7h-5.6zM153.3 17.1c1 0 1.7-.4 2.3-1.1l1.2 1.3c-1 1.1-2.1 1.7-3.5 1.7-1.3 0-2.4-.4-3.3-1.3-.9-.8-1.3-1.9-1.3-3.2 0-1.3.4-2.4 1.3-3.2.9-.9 2-1.3 3.2-1.3 1.4 0 2.6.5 3.6 1.6l-1.2 1.4c-.6-.8-1.4-1.1-2.3-1.1-.7 0-1.4.2-1.9.7-.5.5-.8 1.1-.8 1.9 0 .8.2 1.5.7 1.9.7.5 1.3.7 2 .7zM164.5 18.9l-.8-1.9h-3.6l-.8 1.9h-2.1l3.8-8.7h1.9l3.8 8.7h-2.2zm-2.6-6.1-1.1 2.5h2.2l-1.1-2.5zM173.7 10.2h1.9v8.7h-1.9l-4.1-5.4v5.4h-1.9v-8.7h1.8l4.3 5.6v-5.6zM181.7 17.1c1 0 1.7-.4 2.3-1.1l1.2 1.3c-1 1.1-2.1 1.7-3.5 1.7s-2.4-.4-3.3-1.3c-.9-.8-1.3-1.9-1.3-3.2 0-1.3.4-2.4 1.3-3.2.9-.9 2-1.3 3.2-1.3 1.4 0 2.6.5 3.6 1.6L184 13c-.6-.8-1.4-1.1-2.3-1.1-.7 0-1.4.2-1.9.7-.5.5-.8 1.1-.8 1.9 0 .8.2 1.5.7 1.9.8.5 1.3.7 2 .7zM193.1 10.2v1.7h-4.3v1.8h3.9v1.7h-3.9v1.8h4.5v1.7h-6.4v-8.7h6.2zM202 13.1c0 1.4-.6 2.3-1.7 2.7l2.2 3.1h-2.4l-1.9-2.8h-1.3v2.8H195v-8.7h3.3c1.4 0 2.3.2 2.9.7s.8 1.1.8 2.2zm-2.3 1c.2-.2.4-.6.4-1 0-.5-.1-.8-.4-1-.2-.2-.7-.3-1.3-.3h-1.5v2.6h1.4c.7 0 1.2-.1 1.4-.3zM207.3 10.2h1.9v8.7h-1.9v-8.7zM217.5 10.2h1.9v8.7h-1.9l-4.1-5.4v5.4h-1.9v-8.7h1.8l4.3 5.6v-5.6zM223.6 11.9c-.2.2-.3.4-.3.6s.1.5.3.6c.2.1.8.3 1.6.5s1.5.5 1.9.9c.5.4.7 1 .7 1.8s-.3 1.4-.9 1.9c-.6.5-1.4.7-2.3.7-1.4 0-2.6-.5-3.7-1.5l1.2-1.4c.9.8 1.8 1.2 2.6 1.2.4 0 .6-.1.8-.2.2-.2.3-.4.3-.6 0-.3-.1-.5-.3-.6-.2-.2-.6-.3-1.3-.5-1-.2-1.8-.6-2.2-.9s-.7-1-.7-1.8.3-1.5.9-1.9c.6-.4 1.3-.7 2.2-.7.6 0 1.2.1 1.7.3.6.2 1.1.5 1.5.8l-1 1.4c-.8-.6-1.5-.9-2.3-.9-.3.1-.5.1-.7.3zM233.1 11.8v7h-1.9v-7h-2.5v-1.7h6.9v1.7h-2.5zM237 10.2h1.9v8.7H237v-8.7zM244.7 11.8v7h-1.9v-7h-2.5v-1.7h6.9v1.7h-2.5zM250.9 16.6c.3.4.8.6 1.3.6s1-.2 1.3-.6c.3-.4.5-1 .5-1.6v-4.8h1.9V15c0 1.3-.3 2.2-1 2.9-.7.7-1.6 1-2.7 1s-2-.3-2.7-1-1.1-1.6-1.1-2.9v-4.9h1.9V15c.1.7.3 1.2.6 1.6zM261.6 11.8v7h-1.9v-7h-2.5v-1.7h6.9v1.7h-2.5zM271.8 10.2v1.7h-4.3v1.8h3.9v1.7h-3.9v1.8h4.5v1.7h-6.4v-8.7h6.2z"/></g></svg>