<svg xmlns="http://www.w3.org/2000/svg" xml:space="preserve" baseProfile="tiny" overflow="visible" viewBox="0 0 288 38"><path fill="#606061" d="m44.9 19-9-16.1H3.5C1.5 2.8 0 4.4 0 6.3v25.4c0 1.9 1.5 3.5 3.5 3.5h32.4l9-16.2z"/><path fill="#BA1F40" d="M44 4.5c-.6-1-1.8-1.7-3-1.7h-2.7L47.4 19l-9.1 16.2H41c1.2 0 2.4-.6 3-1.7L52 19 44 4.5z"/><path fill="#FFF" d="M19.1 11.8h2.4v14.4h-2.4zM14.4 11.8v10.5L7.8 11.8H5.4v14.3h2.4V15.6l6.6 10.5h2.3V11.8zM32.9 11.8v6h-6.6v-6h-2.4v14.3h2.4v-6h6.6v6h2.4V11.8z"/><g fill="#BB0E3D"><path d="M65.4 6.7h1.5v6.6h-1.5l-3.1-4.1v4.1h-1.5V6.7h1.4l3.2 4.3V6.7zM73.2 13.3l-.6-1.4h-2.8l-.6 1.4h-1.6l2.9-6.6h1.4l2.9 6.6h-1.6zm-2-4.7-.8 1.9H72l-.8-1.9zM77.8 7.9v5.3h-1.5V7.9h-1.9V6.7h5.2V8h-1.8zM80.8 6.7h1.5v6.6h-1.5V6.7zM89.4 12.4c-.7.7-1.5 1-2.5 1s-1.8-.3-2.5-1-1-1.5-1-2.4.3-1.8 1-2.4c.7-.7 1.5-1 2.5-1s1.8.3 2.5 1 1 1.5 1 2.4-.3 1.7-1 2.4zm-.5-2.5c0-.6-.2-1.1-.6-1.5-.3-.4-.8-.6-1.3-.6s-1 .2-1.4.6c-.4.4-.6.9-.6 1.5s.2 1.1.6 1.5c.4.4.8.6 1.4.6s1-.2 1.4-.6c.3-.4.5-.9.5-1.5zM96.3 6.7h1.5v6.6h-1.5l-3.1-4.1v4.1h-1.5V6.7h1.4l3.2 4.3V6.7zM104.1 13.3l-.6-1.4h-2.8l-.6 1.4h-1.6l2.9-6.6h1.4l2.9 6.6h-1.6zm-2-4.7-.8 1.9h1.7l-.9-1.9zM106.4 13.3V6.7h1.5V12h2.8v1.3h-4.3zM117.3 12c.7 0 1.3-.3 1.8-.9l.9 1c-.8.8-1.6 1.3-2.7 1.3-1 0-1.9-.3-2.5-1-.7-.6-1-1.5-1-2.4 0-1 .3-1.8 1-2.5s1.5-1 2.5-1c1.1 0 2 .4 2.7 1.2l-.9 1c-.5-.6-1-.9-1.7-.9-.6 0-1 .2-1.4.5-.4.4-.6.8-.6 1.5s.2 1.1.6 1.5c.4.5.8.7 1.3.7zM125.9 13.3l-.6-1.4h-2.8l-.6 1.4h-1.6l2.9-6.6h1.4l2.9 6.6h-1.6zm-2-4.7-.8 1.9h1.7l-.9-1.9zM132.8 6.7h1.5v6.6h-1.5l-3.1-4.1v4.1h-1.5V6.7h1.4l3.2 4.3V6.7zM139 12c.7 0 1.3-.3 1.8-.9l.9 1c-.8.8-1.6 1.3-2.7 1.3-1 0-1.9-.3-2.5-1-.7-.6-1-1.5-1-2.4 0-1 .3-1.8 1-2.5s1.5-1 2.5-1c1.1 0 2 .4 2.7 1.2l-.9 1c-.5-.6-1-.9-1.7-.9-.6 0-1 .2-1.4.5-.4.4-.6.8-.6 1.5s.2 1.1.6 1.5c.3.5.7.7 1.3.7zM147.6 6.7V8h-3.3v1.4h3v1.3h-3V12h3.4v1.3h-4.9V6.7h4.8zM154.4 8.9c0 1.1-.4 1.7-1.3 2.1l1.7 2.4H153l-1.5-2.1h-1v2.1H149V6.7h2.5c1 0 1.8.2 2.2.5.5.3.7.9.7 1.7zm-1.8.7c.2-.2.3-.4.3-.8s-.1-.6-.3-.7c-.2-.1-.5-.2-1-.2h-1.1v2h1.1c.5 0 .8-.1 1-.3zM158.4 6.7h1.5v6.6h-1.5V6.7zM166.1 6.7h1.5v6.6h-1.5L163 9.1v4.1h-1.5V6.7h1.4l3.2 4.3V6.7zM170.8 8c-.1.1-.2.3-.2.5s.1.3.3.5c.2.1.6.2 1.2.4s1.1.4 1.5.7c.3.3.5.8.5 1.4s-.2 1.1-.7 1.4c-.4.4-1 .6-1.8.6-1 0-2-.4-2.8-1.2l.9-1.1c.7.6 1.4.9 2 .9.3 0 .5-.1.6-.2.2-.1.2-.3.2-.5s-.1-.4-.2-.5-.5-.2-1-.4c-.8-.2-1.3-.4-1.7-.7-.4-.3-.5-.8-.5-1.4s.2-1.1.7-1.5c.5-.3 1-.5 1.7-.5.4 0 .9.1 1.3.2l1.2.6-.7 1.1c-.6-.4-1.2-.7-1.8-.7-.4.2-.6.3-.7.4zM178 7.9v5.3h-1.5V7.9h-1.9V6.7h5.2V8H178zM180.9 6.7h1.5v6.6h-1.5V6.7zM186.8 7.9v5.3h-1.5V7.9h-1.9V6.7h5.2V8h-1.8zM191.5 11.6c.2.3.6.5 1 .5s.7-.2 1-.5c.2-.3.4-.7.4-1.3V6.7h1.5v3.7c0 1-.3 1.7-.8 2.2-.5.5-1.2.8-2 .8s-1.5-.3-2-.8-.8-1.3-.8-2.2V6.7h1.5v3.6c-.1.5 0 1 .2 1.3zM199.7 7.9v5.3h-1.5V7.9h-1.9V6.7h5.2V8h-1.8zM207.4 6.7V8h-3.3v1.4h3v1.3h-3V12h3.4v1.3h-4.9V6.7h4.8z"/></g><g fill="#606061"><path d="M60.9 29.1v-8.4h3.8c.9 0 1.7.2 2.4.5s1.2.8 1.6 1.5c.4.6.6 1.4.6 2.2 0 .8-.2 1.6-.6 2.2-.4.6-.9 1.1-1.6 1.5-.7.3-1.5.5-2.4.5h-3.8zm2-1.5h1.8c.6 0 1-.1 1.5-.3s.7-.5 1-.9c.2-.4.3-.9.3-1.4 0-.5-.1-1-.3-1.4-.2-.4-.5-.7-1-.9s-.9-.3-1.5-.3h-1.8v5.2zM73.9 29.2c-.7 0-1.4-.1-1.9-.4-.6-.3-1-.7-1.3-1.2-.3-.5-.5-1.1-.5-1.7 0-.6.2-1.2.5-1.7s.7-.9 1.2-1.2c.5-.3 1.1-.4 1.8-.4.6 0 1.2.1 1.7.4.5.3.9.7 1.2 1.2.3.5.4 1.1.4 1.8v.5h-5.2v-1.1H76l-.7.3c0-.3-.1-.6-.2-.9-.1-.2-.3-.4-.6-.6s-.5-.2-.8-.2c-.3 0-.6.1-.8.2-.2.1-.4.3-.6.6s-.2.5-.2.9v.3c0 .4.1.7.2.9.2.3.4.5.7.6.3.1.6.2 1 .2.3 0 .6-.1.9-.2.3-.1.5-.3.7-.5l1 1.1c-.3.3-.7.6-1.1.8-.5.3-1 .3-1.6.3zM80.4 29.2c-.6 0-1.1-.1-1.6-.2s-.9-.3-1.2-.5l.6-1.3c.3.2.6.3 1 .4.4.1.8.2 1.2.2.4 0 .7-.1.9-.2.2-.1.3-.2.3-.4s-.1-.3-.2-.3c-.1-.1-.3-.1-.6-.2-.2 0-.5-.1-.8-.1-.3 0-.6-.1-.8-.2-.3-.1-.5-.2-.8-.3s-.4-.3-.6-.6c-.1-.2-.2-.5-.2-.9s.1-.8.4-1.1c.2-.3.6-.6 1-.7.4-.2 1-.3 1.6-.3.4 0 .9 0 1.3.1.5.1.8.2 1.1.4l-.6 1.3c-.3-.2-.6-.3-.9-.4-.1.1-.4.1-.7.1-.4 0-.7.1-.9.2-.2.1-.3.3-.3.4 0 .2.1.3.2.4.1.1.3.1.6.2.2 0 .5.1.8.1.3 0 .6.1.8.2.3.1.5.2.8.3.2.1.4.3.6.5.1.2.2.5.2.9s-.1.8-.4 1.1c-.2.3-.6.5-1 .7-.6.2-1.1.2-1.8.2zM85.6 21.8c-.3 0-.6-.1-.8-.3-.2-.2-.3-.4-.3-.7s.1-.5.3-.7.5-.3.8-.3c.3 0 .6.1.8.3.2.2.3.4.3.7 0 .3-.1.6-.3.8s-.5.2-.8.2zm-1 7.3v-6.5h1.9v6.5h-1.9zM91 28.8c-.6 0-1.1-.1-1.6-.4-.5-.3-.9-.6-1.2-1.1s-.4-1-.4-1.6c0-.6.1-1.2.4-1.7.3-.5.7-.8 1.2-1.1.5-.3 1-.4 1.6-.4.5 0 1 .1 1.4.3s.7.6 1 1c.2.5.3 1.1.3 1.8s-.1 1.3-.3 1.8c-.2.5-.6.8-1 1-.4.3-.9.4-1.4.4zm.3 2.8c-.6 0-1.2-.1-1.8-.2-.6-.1-1-.4-1.4-.7l.7-1.3c.3.2.6.4 1 .5s.8.2 1.2.2c.7 0 1.1-.1 1.4-.4.3-.3.4-.7.4-1.3v-1l.1-1.6v-3h1.8v5.4c0 1.2-.3 2.1-.9 2.7s-1.3.7-2.5.7zm.1-4.3c.3 0 .6-.1.9-.2s.5-.3.6-.6c.1-.2.2-.5.2-.8 0-.3-.1-.6-.2-.8-.1-.2-.3-.4-.6-.6-.3-.1-.5-.2-.9-.2s-.6.1-.9.2c-.3.1-.5.3-.6.6-.1.2-.2.5-.2.8 0 .3.1.6.2.8.1.2.3.4.6.6s.5.2.9.2zM100.6 22.6c.5 0 1 .1 1.4.3s.7.5 1 .9.3 1 .3 1.6v3.7h-1.9v-3.4c0-.5-.1-.9-.3-1.2-.2-.2-.5-.4-1-.4-.3 0-.6.1-.8.2-.2.1-.4.3-.6.6-.1.3-.2.6-.2 1v3.2h-1.9v-6.5h1.8v1.8l-.3-.5c.2-.4.6-.8 1-1 .4-.2.9-.3 1.5-.3zM111.2 29.3c-.7 0-1.3-.1-1.9-.3-.6-.2-1.1-.4-1.5-.7l.7-1.5c.4.3.8.5 1.3.6.5.2 1 .2 1.5.2.4 0 .7 0 .9-.1.2-.1.4-.2.5-.3s.2-.3.2-.5-.1-.4-.3-.5c-.2-.1-.4-.2-.7-.3s-.6-.2-1-.2c-.3-.1-.7-.2-1-.3-.3-.1-.7-.3-1-.4s-.5-.4-.7-.7c-.2-.3-.3-.7-.3-1.1 0-.5.1-.9.4-1.3.3-.4.7-.7 1.2-.9.5-.2 1.2-.4 2-.4.5 0 1 .1 1.6.2s1 .3 1.4.6l-.6 1.5c-.4-.2-.8-.4-1.2-.5-.4-.1-.8-.2-1.2-.2-.4 0-.7 0-.9.1-.2.1-.4.2-.5.3-.1.1-.2.3-.2.5s.1.4.3.5c.2.1.4.2.7.3s.6.2 1 .2c.3.1.7.2 1 .3.3.1.7.2 1 .4.3.2.5.4.7.7s.3.7.3 1.1c0 .5-.1.9-.4 1.3-.3.4-.7.7-1.2.9-.6.4-1.3.5-2.1.5zM116.7 31.6c-.3 0-.7-.1-1-.2-.3-.1-.6-.2-.8-.4l.7-1.3c.1.1.3.2.5.3.2.1.4.1.6.1.3 0 .5-.1.6-.2.2-.1.3-.3.4-.6l.3-.8.1-.2 2.3-5.6h1.8l-2.9 6.9c-.2.5-.4.9-.7 1.2-.3.3-.6.5-.9.6-.3.1-.6.2-1 .2zm1.1-2.2-2.9-6.7h1.9l2.2 5.4-1.2 1.3zM125.1 29.2c-.6 0-1.1-.1-1.6-.2s-.9-.3-1.2-.5l.6-1.3c.3.2.6.3 1 .4.4.1.8.2 1.2.2.4 0 .7-.1.9-.2.2-.1.3-.2.3-.4s-.1-.3-.2-.3c-.1-.1-.3-.1-.6-.2-.2 0-.5-.1-.8-.1-.3 0-.6-.1-.8-.2-.3-.1-.5-.2-.8-.3s-.4-.3-.6-.6c-.1-.2-.2-.5-.2-.9s.1-.8.4-1.1c.2-.3.6-.6 1-.7.4-.2 1-.3 1.6-.3.4 0 .9 0 1.3.1.5.1.8.2 1.1.4l-.6 1.3c-.3-.2-.6-.3-.9-.4-.3-.1-.6-.1-.9-.1-.4 0-.7.1-.9.2-.2.1-.3.3-.3.4 0 .2.1.3.2.4.1.1.3.1.6.2.2 0 .5.1.8.1.3 0 .6.1.8.2.3.1.5.2.8.3.2.1.4.3.6.5.1.2.2.5.2.9s-.1.8-.4 1.1c-.2.3-.6.5-1 .7-.4.4-.9.4-1.6.4zM128.6 24.3v-1.4h4.5v1.4h-4.5zm3.4 4.9c-.8 0-1.4-.2-1.8-.6-.4-.4-.6-1-.6-1.7v-5.7h1.9v5.6c0 .3.1.5.2.6.1.1.3.2.6.2s.5-.1.8-.2l.5 1.3c-.2.1-.4.2-.7.3-.4.2-.6.2-.9.2zM137.6 29.2c-.7 0-1.4-.1-1.9-.4-.6-.3-1-.7-1.3-1.2-.3-.5-.5-1.1-.5-1.7 0-.6.2-1.2.5-1.7s.7-.9 1.2-1.2c.5-.3 1.1-.4 1.8-.4.6 0 1.2.1 1.7.4.5.3.9.7 1.2 1.2.3.5.4 1.1.4 1.8v.5h-5.2v-1.1h4.3l-.7.3c0-.3-.1-.6-.2-.9-.1-.2-.3-.4-.6-.6s-.5-.2-.8-.2c-.3 0-.6.1-.8.2-.2.1-.4.3-.6.6s-.2.5-.2.9v.3c0 .4.1.7.2.9.2.3.4.5.7.6.3.1.6.2 1 .2.3 0 .6-.1.9-.2.3-.1.5-.3.7-.5l1 1.1c-.3.3-.7.6-1.1.8-.6.3-1.2.3-1.7.3zM150.2 22.6c.5 0 1 .1 1.4.3.4.2.7.5.9.9.2.4.3 1 .3 1.6v3.7H151v-3.4c0-.5-.1-.9-.3-1.2s-.5-.4-.9-.4c-.3 0-.5.1-.7.2-.2.1-.4.3-.5.6-.1.2-.2.6-.2.9V29h-1.9v-3.4c0-.5-.1-.9-.3-1.2-.2-.2-.5-.4-.9-.4-.3 0-.5.1-.7.2-.2.1-.4.3-.5.6s-.2.6-.2.9v3.2H142v-6.5h1.8v1.8l-.3-.5c.2-.4.5-.8 1-1 .4-.2.9-.3 1.4-.3.6 0 1.1.2 1.6.5s.7.8.9 1.4l-.7-.2c.2-.5.6-.9 1-1.2s.9-.3 1.5-.3z"/></g></svg>